<svg width="69" height="71" viewBox="0 0 69 71" fill="none" xmlns="http://www.w3.org/2000/svg">
<circle cx="34.5" cy="38.5833" r="32.5" fill="#A56492" fill-opacity="0.65"/>
<path d="M48.4604 55.5163L46.5671 40.3578C46.2988 38.2107 45.2553 36.2356 43.6329 34.8039C42.0105 33.3722 39.9209 32.5825 37.7572 32.5833H31.237C29.0742 32.5839 26.9861 33.3743 25.3649 34.8059C23.7438 36.2375 22.7012 38.2118 22.433 40.3578L20.5367 55.5163C20.4326 56.3491 20.5069 57.1946 20.7547 57.9964C21.0024 58.7983 21.4179 59.5383 21.9736 60.1673C22.5293 60.7963 23.2124 61.2999 23.9776 61.6446C24.7428 61.9893 25.5727 62.1673 26.4119 62.1667H42.5881C43.4271 62.1668 44.2566 61.9886 45.0215 61.6437C45.7864 61.2988 46.4691 60.7952 47.0245 60.1662C47.5799 59.5373 47.9951 58.7974 48.2427 57.9957C48.4902 57.1941 48.5644 56.3489 48.4604 55.5163V55.5163Z" stroke="#F8F8F8" stroke-width="5" stroke-linecap="round" stroke-linejoin="round"/>
<path d="M34.5 20.75C39.4015 20.75 43.375 16.7765 43.375 11.875C43.375 6.97347 39.4015 3 34.5 3C29.5985 3 25.625 6.97347 25.625 11.875C25.625 16.7765 29.5985 20.75 34.5 20.75Z" stroke="#F8F8F8" stroke-width="5"/>
<path d="M10.8334 29.625C14.101 29.625 16.75 26.976 16.75 23.7083C16.75 20.4406 14.101 17.7917 10.8334 17.7917C7.56567 17.7917 4.91669 20.4406 4.91669 23.7083C4.91669 26.976 7.56567 29.625 10.8334 29.625Z" stroke="#F8F8F8" stroke-width="5"/>
<path d="M58.1667 29.625C61.4344 29.625 64.0833 26.976 64.0833 23.7083C64.0833 20.4406 61.4344 17.7917 58.1667 17.7917C54.899 17.7917 52.25 20.4406 52.25 23.7083C52.25 26.976 54.899 29.625 58.1667 29.625Z" stroke="#F8F8F8" stroke-width="5"/>
<path d="M10.8333 38.5H9.92809C8.5275 38.4998 7.17227 38.9965 6.10349 39.9017C5.03471 40.8069 4.3217 42.0619 4.0913 43.4434L3.10618 49.36C2.9648 50.2077 3.0098 51.0761 3.23803 51.9046C3.46626 52.7331 3.87224 53.502 4.42774 54.1578C4.98325 54.8135 5.67494 55.3403 6.45469 55.7017C7.23445 56.063 8.08356 56.2501 8.94297 56.25H19.7083" stroke="#F8F8F8" stroke-width="5" stroke-linecap="round" stroke-linejoin="round"/>
<path d="M58.1667 38.5H59.0719C60.4725 38.4998 61.8278 38.9965 62.8965 39.9017C63.9653 40.8069 64.6783 42.0619 64.9087 43.4434L65.8939 49.36C66.0352 50.2077 65.9902 51.0761 65.762 51.9046C65.5338 52.7331 65.1278 53.502 64.5723 54.1578C64.0168 54.8135 63.3251 55.3403 62.5453 55.7017C61.7656 56.063 60.9165 56.2501 60.0571 56.25H49.2917" stroke="#F8F8F8" stroke-width="5" stroke-linecap="round" stroke-linejoin="round"/>
</svg>
