<svg width="65" height="65" viewBox="0 0 65 65" fill="none" xmlns="http://www.w3.org/2000/svg">
<circle cx="32.5" cy="32.5" r="32.5" fill="#A56492" fill-opacity="0.65"/>
<path d="M32.4538 8.61451C34.5506 8.61451 36.5615 9.44745 38.0441 10.9301C39.5267 12.4127 40.3597 14.4236 40.3597 16.5204C40.3597 18.6171 39.5267 20.628 38.0441 22.1106C36.5615 23.5933 34.5506 24.4262 32.4538 24.4262C30.3566 24.4262 28.3453 23.5931 26.8623 22.1101C25.3793 20.6272 24.5462 18.6158 24.5462 16.5186C24.5462 14.4214 25.3793 12.41 26.8623 10.9271C28.3453 9.44408 30.3566 8.61096 32.4538 8.61096V8.61451ZM32.4538 12.1645C31.2986 12.1645 30.1907 12.6234 29.3738 13.4403C28.5569 14.2572 28.098 15.3651 28.098 16.5204C28.098 17.6756 28.5569 18.7835 29.3738 19.6004C30.1907 20.4173 31.2986 20.8762 32.4538 20.8762C33.6095 20.8762 34.7179 20.4171 35.5351 19.5999C36.3523 18.7827 36.8115 17.6743 36.8115 16.5186C36.8115 15.3629 36.3523 14.2545 35.5351 13.4373C34.7179 12.6201 33.6095 12.161 32.4538 12.161V12.1645ZM7.70678 38.825C7.70678 39.2958 7.51977 39.7472 7.18689 40.0801C6.85401 40.413 6.40253 40.6 5.93178 40.6C5.46102 40.6 5.00954 40.413 4.67666 40.0801C4.34378 39.7472 4.15678 39.2958 4.15678 38.825V29.9997C4.15689 29.1302 4.47612 28.291 5.05391 27.6412C5.63171 26.9914 6.42788 26.5763 7.29143 26.4746L7.70678 26.4497H17.4941C16.9776 27.341 16.6625 28.3346 16.5711 29.3607L16.5427 29.9997H7.70323V38.825H7.70678ZM59.0895 40.6C59.5602 40.6 60.0117 40.413 60.3446 40.0801C60.6775 39.7472 60.8645 39.2958 60.8645 38.825V29.9997L60.8396 29.5879C60.7387 28.7237 60.3239 27.9267 59.6741 27.3482C59.0242 26.7697 58.1845 26.4499 57.3145 26.4497H47.4313C47.9496 27.3479 48.2833 28.3774 48.3614 29.4708L48.3791 30.0033H57.3145V38.825C57.3145 39.2958 57.5015 39.7472 57.8344 40.0801C58.1672 40.413 58.6187 40.6 59.0895 40.6ZM41.2827 26.4497C42.1527 26.4499 42.9924 26.7697 43.6423 27.3482C44.2921 27.9267 44.7069 28.7237 44.8078 29.5879L44.8291 29.9997V38.825C44.8291 39.2958 44.6421 39.7472 44.3092 40.0801C43.9764 40.413 43.5249 40.6 43.0541 40.6C42.5834 40.6 42.1319 40.413 41.799 40.0801C41.4661 39.7472 41.2791 39.2958 41.2791 38.825V29.9997H23.6427V38.825C23.6427 39.2958 23.4557 39.7472 23.1228 40.0801C22.79 40.413 22.3385 40.6 21.8677 40.6C21.397 40.6 20.9455 40.413 20.6126 40.0801C20.2797 39.7472 20.0927 39.2958 20.0927 38.825V29.9997C20.0928 29.1302 20.4121 28.291 20.9899 27.6412C21.5677 26.9914 22.3638 26.5763 23.2274 26.4746L23.6427 26.4497H41.2791H41.2827ZM56.9524 17.6351C56.9524 15.8335 56.2367 14.1057 54.9628 12.8317C53.6889 11.5578 51.961 10.8421 50.1595 10.8421C48.3579 10.8421 46.63 11.5578 45.3561 12.8317C44.0822 14.1057 43.3665 15.8335 43.3665 17.6351C43.3665 19.4367 44.0822 21.1645 45.3561 22.4384C46.63 23.7123 48.3579 24.428 50.1595 24.428C51.961 24.428 53.6889 23.7123 54.9628 22.4384C56.2367 21.1645 56.9524 19.4367 56.9524 17.6351ZM46.9165 17.6351C46.9165 16.775 47.2582 15.9501 47.8664 15.342C48.4745 14.7338 49.2994 14.3921 50.1595 14.3921C51.0195 14.3921 51.8444 14.7338 52.4525 15.342C53.0607 15.9501 53.4024 16.775 53.4024 17.6351C53.4024 18.4951 53.0607 19.32 52.4525 19.9282C51.8444 20.5363 51.0195 20.878 50.1595 20.878C49.2994 20.878 48.4745 20.5363 47.8664 19.9282C47.2582 19.32 46.9165 18.4951 46.9165 17.6351ZM14.8068 10.8404C16.6084 10.8404 18.3362 11.556 19.6101 12.83C20.884 14.1039 21.5997 15.8317 21.5997 17.6333C21.5997 19.4349 20.884 21.1627 19.6101 22.4366C18.3362 23.7105 16.6084 24.4262 14.8068 24.4262C13.0052 24.4262 11.2774 23.7105 10.0035 22.4366C8.72953 21.1627 8.01385 19.4349 8.01385 17.6333C8.01385 15.8317 8.72953 14.1039 10.0035 12.83C11.2774 11.556 13.0052 10.8404 14.8068 10.8404ZM14.8068 14.3904C13.9467 14.3904 13.1218 14.732 12.5137 15.3402C11.9055 15.9484 11.5639 16.7732 11.5639 17.6333C11.5639 18.4934 11.9055 19.3182 12.5137 19.9264C13.1218 20.5345 13.9467 20.8762 14.8068 20.8762C15.6669 20.8762 16.4917 20.5345 17.0999 19.9264C17.708 19.3182 18.0497 18.4934 18.0497 17.6333C18.0497 16.7732 17.708 15.9484 17.0999 15.3402C16.4917 14.732 15.6669 14.3904 14.8068 14.3904ZM5.87498 44.15C5.40422 44.15 4.95274 44.337 4.61986 44.6699C4.28698 45.0028 4.09998 45.4543 4.09998 45.925V49.475C4.09998 51.8288 5.03502 54.0862 6.6994 55.7506C8.36379 57.415 10.6212 58.35 12.975 58.35H52.025C54.3788 58.35 56.6362 57.415 58.3005 55.7506C59.9649 54.0862 60.9 51.8288 60.9 49.475V45.925C60.9 45.4543 60.713 45.0028 60.3801 44.6699C60.0472 44.337 59.5957 44.15 59.125 44.15H5.87498ZM7.64998 49.475V47.7H57.35V49.475C57.35 50.8873 56.7889 52.2417 55.7903 53.2404C54.7917 54.239 53.4373 54.8 52.025 54.8H12.975C11.5627 54.8 10.2083 54.239 9.20963 53.2404C8.211 52.2417 7.64998 50.8873 7.64998 49.475Z" fill="#F8F8F8"/>
</svg>
