<svg width="63" height="60" viewBox="0 0 63 60" fill="none" xmlns="http://www.w3.org/2000/svg">
<path d="M31.5 58.0834L38.8959 52.1667M31.5 58.0834V31.4584V58.0834ZM31.5 58.0834L24.1042 52.1667L31.5 58.0834Z" stroke="#F8F8F8" stroke-width="3" stroke-linecap="round" stroke-linejoin="round"/>
<path d="M10.8923 19.9711C8.09431 20.6752 5.64974 22.3767 4.01785 24.7561C2.38596 27.1354 1.67908 30.0287 2.03001 32.8925C2.38094 35.7563 3.76553 38.3933 5.92364 40.3082C8.08176 42.2231 10.8648 43.284 13.75 43.2917H16.7083" stroke="#F8F8F8" stroke-width="3" stroke-linecap="round" stroke-linejoin="round"/>
<path d="M42.8304 14.1166C41.8193 10.1127 39.3236 6.64308 35.8492 4.41106C32.3747 2.17905 28.1816 1.35165 24.1197 2.0966C20.0579 2.84155 16.4313 5.1031 13.975 8.4228C11.5188 11.7425 10.4168 15.872 10.8923 19.9741C10.8923 19.9741 11.3449 22.5833 12.2709 24.0625" stroke="#F8F8F8" stroke-width="3" stroke-linecap="round" stroke-linejoin="round"/>
<path d="M46.2917 43.2917C48.3804 43.2902 50.4451 42.8465 52.35 41.9896C54.2548 41.1327 55.9565 39.8821 57.3432 38.3201C58.7299 36.7581 59.77 34.9202 60.3952 32.9272C61.0204 30.9343 61.2164 28.8315 60.9703 26.7574C60.7242 24.6832 60.0417 22.6847 58.9675 20.8934C57.8934 19.102 56.4521 17.5585 54.7384 16.3643C53.0248 15.1701 51.0776 14.3524 49.0252 13.965C46.9727 13.5776 44.8615 13.6293 42.8305 14.1166L38.8959 15.1875" stroke="#F8F8F8" stroke-width="3" stroke-linecap="round" stroke-linejoin="round"/>
</svg>
