<svg width="236" height="242" viewBox="0 0 236 242" fill="none" xmlns="http://www.w3.org/2000/svg">
<path fill-rule="evenodd" clip-rule="evenodd" d="M225.726 20.6563H140.344V0L0 22.2399V217.181L140.344 242V211.383H225.726C228.311 211.518 230.844 210.596 232.769 208.818C234.695 207.041 235.856 204.553 236 201.899V30.1321C235.854 27.4794 234.692 24.9938 232.766 23.2183C230.841 21.4428 228.31 20.5218 225.726 20.6563ZM227.074 203.474H140.058L139.914 187.127H160.876V168.089H139.754L139.653 156.839H160.876V137.801H139.493L139.392 126.551H160.876V107.513H139.324V96.2635H160.876V77.2254H139.324V65.9756H160.876V46.9375H139.324V29.6302H227.074V203.474Z" fill="#20744A"/>
</svg>
