<svg width="71" height="65" viewBox="0 0 71 65" fill="none" xmlns="http://www.w3.org/2000/svg">
<circle cx="35.5" cy="32.5" r="32.5" fill="#A56492" fill-opacity="0.65"/>
<path d="M68.0417 28.625H53.25C52.4654 28.625 51.7129 28.9367 51.1581 29.4915C50.6033 30.0463 50.2917 30.7987 50.2917 31.5833V58.2083C50.2917 58.9929 50.6033 59.7454 51.1581 60.3002C51.7129 60.855 52.4654 61.1667 53.25 61.1667H68.0417C68.8263 61.1667 69.5787 60.855 70.1335 60.3002C70.6883 59.7454 71 58.9929 71 58.2083V31.5833C71 30.7987 70.6883 30.0463 70.1335 29.4915C69.5787 28.9367 68.8263 28.625 68.0417 28.625ZM68.0417 55.25H53.25V34.5417H68.0417V55.25ZM59.1667 2H5.91667C2.63292 2 0 4.63292 0 7.91667V43.4167C0 44.9859 0.623361 46.4908 1.73295 47.6004C2.84254 48.71 4.34747 49.3333 5.91667 49.3333H26.625V55.25H20.7083V61.1667H44.375V55.25H38.4583V49.3333H44.375V43.4167H5.91667V7.91667H59.1667V22.7083H65.0833V7.91667C65.0833 6.34747 64.46 4.84255 63.3504 3.73296C62.2408 2.62336 60.7359 2 59.1667 2Z" fill="#F8F8F8"/>
</svg>
