<svg width="53" height="53" viewBox="0 0 53 53" fill="none" xmlns="http://www.w3.org/2000/svg">
<path d="M22.8247 11.86L14.2263 1.93483C13.235 0.791077 11.4177 0.796161 10.2664 1.95008L3.19545 9.0337C1.09095 11.1407 0.488573 14.2695 1.70603 16.7782C8.97931 31.8374 21.1245 43.9996 36.1736 51.294C38.6797 52.5114 41.8059 51.9091 43.9104 49.802L51.0474 42.6523C52.2039 41.4959 52.2064 39.6684 51.0525 38.6772L41.0892 30.1244C40.0471 29.2298 38.428 29.3467 37.3834 30.3939L33.9166 33.8658C33.7391 34.0518 33.5055 34.1744 33.2516 34.2148C32.9976 34.2552 32.7375 34.2112 32.511 34.0894C26.8442 30.8262 22.1436 26.1194 18.8877 20.4483C18.7658 20.2215 18.7216 19.9609 18.762 19.7066C18.8024 19.4522 18.9251 19.2181 19.1114 19.0402L22.568 15.581C23.6152 14.5288 23.7296 12.9021 22.8247 11.8575V11.86Z" stroke="#F8F8F8" stroke-width="2" stroke-linecap="round" stroke-linejoin="round"/>
</svg>
